<mxfile host="Electron" modified="2024-01-24T09:41:51.688Z" agent="Mozilla/5.0 (Windows NT 10.0; Win64; x64) AppleWebKit/537.36 (KHTML, like Gecko) draw.io/22.0.2 Chrome/114.0.5735.289 Electron/25.8.4 Safari/537.36" etag="kQzV1vz412Wn3OZgaomC" version="22.0.2" type="device">
  <diagram id="Iz-yiOWk-HISUrkcBoNB" name="Seite-2">
    <mxGraphModel dx="521" dy="613" grid="1" gridSize="10" guides="1" tooltips="1" connect="1" arrows="1" fold="1" page="1" pageScale="1" pageWidth="827" pageHeight="1169" math="0" shadow="0">
      <root>
        <mxCell id="0" />
        <mxCell id="1" parent="0" />
        <mxCell id="yQx5T61HYvTMsjhrY5K0-1" value="&lt;p style=&quot;margin:0px;margin-top:4px;margin-left:10px;text-align:left;&quot;&gt;ibd [Block] Trajektorieplanung [Autonomes Fahrzeug - Interne Komponenten]&lt;/p&gt;" style="html=1;shape=mxgraph.sysml.package;labelX=430.6;align=left;spacingLeft=10;overflow=fill;recursiveResize=0;" parent="1" vertex="1">
          <mxGeometry x="70" y="40" width="1060" height="520" as="geometry" />
        </mxCell>
        <mxCell id="V-H6yXurVEavojggUqIq-17" style="edgeStyle=orthogonalEdgeStyle;rounded=0;orthogonalLoop=1;jettySize=auto;html=1;exitX=1;exitY=0.25;exitDx=0;exitDy=0;entryX=0;entryY=0.25;entryDx=0;entryDy=0;" parent="1" source="V-H6yXurVEavojggUqIq-33" target="yQx5T61HYvTMsjhrY5K0-6" edge="1">
          <mxGeometry relative="1" as="geometry">
            <Array as="points">
              <mxPoint x="525" y="110" />
              <mxPoint x="690" y="110" />
            </Array>
          </mxGeometry>
        </mxCell>
        <mxCell id="yQx5T61HYvTMsjhrY5K0-5" value="dve:&lt;br&gt;Datenverarbeitungs-einheit" style="strokeColor=inherit;fillColor=inherit;gradientColor=inherit;shape=rect;html=1;fontStyle=1;whiteSpace=wrap;align=center;" parent="1" vertex="1">
          <mxGeometry x="400" y="90" width="120" height="70" as="geometry" />
        </mxCell>
        <mxCell id="V-H6yXurVEavojggUqIq-18" style="edgeStyle=orthogonalEdgeStyle;rounded=0;orthogonalLoop=1;jettySize=auto;html=1;exitX=1;exitY=0.25;exitDx=0;exitDy=0;entryX=0;entryY=0.25;entryDx=0;entryDy=0;" parent="1" source="V-H6yXurVEavojggUqIq-35" target="V-H6yXurVEavojggUqIq-7" edge="1">
          <mxGeometry relative="1" as="geometry">
            <Array as="points">
              <mxPoint x="755" y="110" />
              <mxPoint x="850" y="110" />
              <mxPoint x="850" y="105" />
            </Array>
          </mxGeometry>
        </mxCell>
        <mxCell id="yQx5T61HYvTMsjhrY5K0-6" value="zse: Zentrale Steuereinheit" style="strokeColor=inherit;fillColor=inherit;gradientColor=inherit;shape=rect;html=1;fontStyle=1;whiteSpace=wrap;align=center;" parent="1" vertex="1">
          <mxGeometry x="690" y="85" width="110" height="85" as="geometry" />
        </mxCell>
        <mxCell id="V-H6yXurVEavojggUqIq-73" style="edgeStyle=orthogonalEdgeStyle;rounded=0;orthogonalLoop=1;jettySize=auto;html=1;exitX=0.5;exitY=0;exitDx=0;exitDy=0;exitPerimeter=0;entryX=0;entryY=0.25;entryDx=0;entryDy=0;" parent="1" source="Yl8RET_h9AZQXtaRCvwJ-2" target="V-H6yXurVEavojggUqIq-12" edge="1">
          <mxGeometry relative="1" as="geometry">
            <Array as="points">
              <mxPoint x="140" y="105" />
            </Array>
          </mxGeometry>
        </mxCell>
        <mxCell id="Yl8RET_h9AZQXtaRCvwJ-2" value="" style="html=1;shape=mxgraph.sysml.port;sysMLPortType=flowN;rotation=90;" parent="1" vertex="1">
          <mxGeometry x="60" y="95" width="20" height="20" as="geometry" />
        </mxCell>
        <mxCell id="FQ2LLl0_XJg0nhXrkb5Q-1" value="md: Mapping Database" style="strokeColor=inherit;fillColor=inherit;gradientColor=inherit;shape=rect;html=1;fontStyle=1;whiteSpace=wrap;align=center;" parent="1" vertex="1">
          <mxGeometry x="140" y="420" width="110" height="60" as="geometry" />
        </mxCell>
        <mxCell id="V-H6yXurVEavojggUqIq-7" value="a: Aktuatoren" style="strokeColor=inherit;fillColor=inherit;gradientColor=inherit;shape=rect;html=1;fontStyle=1;whiteSpace=wrap;align=center;" parent="1" vertex="1">
          <mxGeometry x="970" y="95" width="130" height="60" as="geometry" />
        </mxCell>
        <mxCell id="V-H6yXurVEavojggUqIq-11" value="pf: Pfadfinder" style="strokeColor=inherit;fillColor=inherit;gradientColor=inherit;shape=rect;html=1;fontStyle=1;whiteSpace=wrap;align=center;" parent="1" vertex="1">
          <mxGeometry x="140" y="270" width="120" height="70" as="geometry" />
        </mxCell>
        <mxCell id="V-H6yXurVEavojggUqIq-19" style="edgeStyle=orthogonalEdgeStyle;rounded=0;orthogonalLoop=1;jettySize=auto;html=1;exitX=0.25;exitY=1;exitDx=0;exitDy=0;entryX=0.25;entryY=0;entryDx=0;entryDy=0;" parent="1" source="V-H6yXurVEavojggUqIq-59" target="V-H6yXurVEavojggUqIq-11" edge="1">
          <mxGeometry relative="1" as="geometry" />
        </mxCell>
        <mxCell id="V-H6yXurVEavojggUqIq-21" style="edgeStyle=orthogonalEdgeStyle;rounded=0;orthogonalLoop=1;jettySize=auto;html=1;exitX=1;exitY=0.25;exitDx=0;exitDy=0;entryX=0;entryY=0.25;entryDx=0;entryDy=0;" parent="1" source="V-H6yXurVEavojggUqIq-32" target="yQx5T61HYvTMsjhrY5K0-5" edge="1">
          <mxGeometry relative="1" as="geometry" />
        </mxCell>
        <mxCell id="V-H6yXurVEavojggUqIq-12" value="s: Sensoren" style="strokeColor=inherit;fillColor=inherit;gradientColor=inherit;shape=rect;html=1;fontStyle=1;whiteSpace=wrap;align=center;" parent="1" vertex="1">
          <mxGeometry x="140" y="90" width="120" height="70" as="geometry" />
        </mxCell>
        <mxCell id="V-H6yXurVEavojggUqIq-27" value="" style="html=1;shape=mxgraph.sysml.port;sysMLPortType=flowN;rotation=90;" parent="1" vertex="1">
          <mxGeometry x="240" y="430" width="20" height="20" as="geometry" />
        </mxCell>
        <mxCell id="V-H6yXurVEavojggUqIq-34" value="" style="html=1;shape=mxgraph.sysml.port;sysMLPortType=flowN;rotation=90;" parent="1" vertex="1">
          <mxGeometry x="960" y="100" width="20" height="20" as="geometry" />
        </mxCell>
        <mxCell id="V-H6yXurVEavojggUqIq-36" value="" style="edgeStyle=orthogonalEdgeStyle;rounded=0;orthogonalLoop=1;jettySize=auto;html=1;exitX=1;exitY=0.25;exitDx=0;exitDy=0;entryX=0;entryY=0.25;entryDx=0;entryDy=0;" parent="1" source="yQx5T61HYvTMsjhrY5K0-6" target="V-H6yXurVEavojggUqIq-35" edge="1">
          <mxGeometry relative="1" as="geometry">
            <mxPoint x="750" y="106" as="sourcePoint" />
            <mxPoint x="940" y="105" as="targetPoint" />
          </mxGeometry>
        </mxCell>
        <mxCell id="V-H6yXurVEavojggUqIq-35" value="" style="html=1;shape=mxgraph.sysml.port;sysMLPortType=flowN;rotation=90;" parent="1" vertex="1">
          <mxGeometry x="795" y="100" width="20" height="20" as="geometry" />
        </mxCell>
        <mxCell id="V-H6yXurVEavojggUqIq-37" value="" style="edgeStyle=orthogonalEdgeStyle;rounded=0;orthogonalLoop=1;jettySize=auto;html=1;exitX=1;exitY=0.25;exitDx=0;exitDy=0;entryX=0;entryY=0.25;entryDx=0;entryDy=0;" parent="1" source="yQx5T61HYvTMsjhrY5K0-5" target="V-H6yXurVEavojggUqIq-33" edge="1">
          <mxGeometry relative="1" as="geometry">
            <mxPoint x="520" y="108" as="sourcePoint" />
            <mxPoint x="640" y="106" as="targetPoint" />
          </mxGeometry>
        </mxCell>
        <mxCell id="V-H6yXurVEavojggUqIq-33" value="" style="html=1;shape=mxgraph.sysml.port;sysMLPortType=flowN;rotation=90;" parent="1" vertex="1">
          <mxGeometry x="510" y="100" width="20" height="20" as="geometry" />
        </mxCell>
        <mxCell id="V-H6yXurVEavojggUqIq-38" value="" style="edgeStyle=orthogonalEdgeStyle;rounded=0;orthogonalLoop=1;jettySize=auto;html=1;exitX=1;exitY=0.25;exitDx=0;exitDy=0;entryX=0;entryY=0.25;entryDx=0;entryDy=0;" parent="1" source="V-H6yXurVEavojggUqIq-31" target="V-H6yXurVEavojggUqIq-32" edge="1">
          <mxGeometry relative="1" as="geometry">
            <mxPoint x="260" y="108" as="sourcePoint" />
            <mxPoint x="400" y="108" as="targetPoint" />
            <Array as="points">
              <mxPoint x="265" y="107" />
              <mxPoint x="400" y="107" />
            </Array>
          </mxGeometry>
        </mxCell>
        <mxCell id="V-H6yXurVEavojggUqIq-32" value="" style="html=1;shape=mxgraph.sysml.port;sysMLPortType=flowN;rotation=90;" parent="1" vertex="1">
          <mxGeometry x="385" y="100" width="20" height="20" as="geometry" />
        </mxCell>
        <mxCell id="V-H6yXurVEavojggUqIq-39" value="" style="edgeStyle=orthogonalEdgeStyle;rounded=0;orthogonalLoop=1;jettySize=auto;html=1;exitX=1;exitY=0.25;exitDx=0;exitDy=0;entryX=0;entryY=0.25;entryDx=0;entryDy=0;" parent="1" source="V-H6yXurVEavojggUqIq-12" target="V-H6yXurVEavojggUqIq-31" edge="1">
          <mxGeometry relative="1" as="geometry">
            <mxPoint x="260" y="108" as="sourcePoint" />
            <mxPoint x="400" y="100" as="targetPoint" />
            <Array as="points" />
          </mxGeometry>
        </mxCell>
        <mxCell id="V-H6yXurVEavojggUqIq-31" value="" style="html=1;shape=mxgraph.sysml.port;sysMLPortType=flowN;rotation=90;" parent="1" vertex="1">
          <mxGeometry x="250" y="100" width="20" height="20" as="geometry" />
        </mxCell>
        <mxCell id="V-H6yXurVEavojggUqIq-41" value="" style="edgeStyle=orthogonalEdgeStyle;rounded=0;orthogonalLoop=1;jettySize=auto;html=1;exitX=1;exitY=0.75;exitDx=0;exitDy=0;entryX=0;entryY=0.75;entryDx=0;entryDy=0;" parent="1" source="yQx5T61HYvTMsjhrY5K0-5" target="V-H6yXurVEavojggUqIq-28" edge="1">
          <mxGeometry relative="1" as="geometry">
            <mxPoint x="520" y="143" as="sourcePoint" />
            <mxPoint x="340" y="395" as="targetPoint" />
            <Array as="points">
              <mxPoint x="540" y="143" />
              <mxPoint x="540" y="530" />
              <mxPoint x="100" y="530" />
              <mxPoint x="100" y="440" />
              <mxPoint x="135" y="440" />
            </Array>
          </mxGeometry>
        </mxCell>
        <mxCell id="V-H6yXurVEavojggUqIq-28" value="" style="html=1;shape=mxgraph.sysml.port;sysMLPortType=flowN;rotation=90;" parent="1" vertex="1">
          <mxGeometry x="130" y="430" width="20" height="20" as="geometry" />
        </mxCell>
        <mxCell id="V-H6yXurVEavojggUqIq-43" value="" style="edgeStyle=orthogonalEdgeStyle;rounded=0;orthogonalLoop=1;jettySize=auto;html=1;entryX=0;entryY=0.75;entryDx=0;entryDy=0;" parent="1" source="V-H6yXurVEavojggUqIq-27" target="V-H6yXurVEavojggUqIq-26" edge="1">
          <mxGeometry relative="1" as="geometry">
            <mxPoint x="260" y="410" as="sourcePoint" />
            <mxPoint x="140" y="323" as="targetPoint" />
            <Array as="points">
              <mxPoint x="270" y="440" />
              <mxPoint x="270" y="390" />
              <mxPoint x="110" y="390" />
              <mxPoint x="110" y="325" />
              <mxPoint x="135" y="325" />
            </Array>
          </mxGeometry>
        </mxCell>
        <mxCell id="V-H6yXurVEavojggUqIq-26" value="" style="html=1;shape=mxgraph.sysml.port;sysMLPortType=flowN;rotation=90;" parent="1" vertex="1">
          <mxGeometry x="130" y="315" width="20" height="20" as="geometry" />
        </mxCell>
        <mxCell id="V-H6yXurVEavojggUqIq-44" value="Sensordaten" style="text;html=1;align=center;verticalAlign=middle;resizable=0;points=[];autosize=1;strokeColor=none;fillColor=none;" parent="1" vertex="1">
          <mxGeometry x="270" y="80" width="90" height="30" as="geometry" />
        </mxCell>
        <mxCell id="V-H6yXurVEavojggUqIq-45" value="Sensordaten" style="text;html=1;align=center;verticalAlign=middle;resizable=0;points=[];autosize=1;strokeColor=none;fillColor=none;" parent="1" vertex="1">
          <mxGeometry x="170" y="180" width="90" height="30" as="geometry" />
        </mxCell>
        <mxCell id="V-H6yXurVEavojggUqIq-48" value="verarbeitete Sensordaten" style="text;html=1;align=center;verticalAlign=middle;resizable=0;points=[];autosize=1;strokeColor=none;fillColor=none;" parent="1" vertex="1">
          <mxGeometry x="315" y="500" width="160" height="30" as="geometry" />
        </mxCell>
        <mxCell id="V-H6yXurVEavojggUqIq-49" value="Vorläufiger Pfad" style="text;html=1;align=center;verticalAlign=middle;resizable=0;points=[];autosize=1;strokeColor=none;fillColor=none;" parent="1" vertex="1">
          <mxGeometry x="300" y="260" width="110" height="30" as="geometry" />
        </mxCell>
        <mxCell id="V-H6yXurVEavojggUqIq-50" value="Berechnete Trajektorie" style="text;html=1;align=center;verticalAlign=middle;resizable=0;points=[];autosize=1;strokeColor=none;fillColor=none;" parent="1" vertex="1">
          <mxGeometry x="535" y="80" width="140" height="30" as="geometry" />
        </mxCell>
        <mxCell id="V-H6yXurVEavojggUqIq-51" value="Karteninformationen" style="text;html=1;align=center;verticalAlign=middle;resizable=0;points=[];autosize=1;strokeColor=none;fillColor=none;" parent="1" vertex="1">
          <mxGeometry x="135" y="360" width="130" height="30" as="geometry" />
        </mxCell>
        <mxCell id="V-H6yXurVEavojggUqIq-52" value="Steuerbefehle" style="text;html=1;align=center;verticalAlign=middle;resizable=0;points=[];autosize=1;strokeColor=none;fillColor=none;" parent="1" vertex="1">
          <mxGeometry x="840" y="80" width="100" height="30" as="geometry" />
        </mxCell>
        <mxCell id="V-H6yXurVEavojggUqIq-58" value="" style="edgeStyle=orthogonalEdgeStyle;rounded=0;orthogonalLoop=1;jettySize=auto;html=1;exitX=1;exitY=0.25;exitDx=0;exitDy=0;entryX=0.25;entryY=1;entryDx=0;entryDy=0;" parent="1" source="V-H6yXurVEavojggUqIq-11" target="yQx5T61HYvTMsjhrY5K0-5" edge="1">
          <mxGeometry relative="1" as="geometry">
            <mxPoint x="260" y="288" as="sourcePoint" />
            <mxPoint x="430" y="170" as="targetPoint" />
            <Array as="points">
              <mxPoint x="420" y="287" />
              <mxPoint x="420" y="160" />
            </Array>
          </mxGeometry>
        </mxCell>
        <mxCell id="V-H6yXurVEavojggUqIq-60" value="" style="edgeStyle=orthogonalEdgeStyle;rounded=0;orthogonalLoop=1;jettySize=auto;html=1;exitX=0.25;exitY=1;exitDx=0;exitDy=0;entryX=0.25;entryY=0;entryDx=0;entryDy=0;" parent="1" source="V-H6yXurVEavojggUqIq-12" target="V-H6yXurVEavojggUqIq-59" edge="1">
          <mxGeometry relative="1" as="geometry">
            <mxPoint x="170" y="160" as="sourcePoint" />
            <mxPoint x="170" y="270" as="targetPoint" />
            <Array as="points">
              <mxPoint x="170" y="280" />
            </Array>
          </mxGeometry>
        </mxCell>
        <mxCell id="V-H6yXurVEavojggUqIq-59" value="" style="html=1;shape=mxgraph.sysml.port;sysMLPortType=flowN;rotation=-180;" parent="1" vertex="1">
          <mxGeometry x="160" y="260" width="20" height="20" as="geometry" />
        </mxCell>
        <mxCell id="V-H6yXurVEavojggUqIq-61" value="" style="html=1;shape=mxgraph.sysml.port;sysMLPortType=flowN;rotation=90;" parent="1" vertex="1">
          <mxGeometry x="675" y="100" width="20" height="20" as="geometry" />
        </mxCell>
        <mxCell id="V-H6yXurVEavojggUqIq-62" value="" style="html=1;shape=mxgraph.sysml.port;sysMLPortType=flowN;rotation=0;" parent="1" vertex="1">
          <mxGeometry x="414" y="150" width="20" height="20" as="geometry" />
        </mxCell>
        <mxCell id="V-H6yXurVEavojggUqIq-74" value="" style="html=1;shape=mxgraph.sysml.port;sysMLPortType=flowN;rotation=90;" parent="1" vertex="1">
          <mxGeometry x="130" y="95" width="20" height="20" as="geometry" />
        </mxCell>
        <mxCell id="V-H6yXurVEavojggUqIq-25" value="" style="html=1;shape=mxgraph.sysml.port;sysMLPortType=flowN;rotation=90;" parent="1" vertex="1">
          <mxGeometry x="510" y="130" width="20" height="20" as="geometry" />
        </mxCell>
        <mxCell id="V-H6yXurVEavojggUqIq-30" value="" style="html=1;shape=mxgraph.sysml.port;sysMLPortType=flowN;rotation=90;" parent="1" vertex="1">
          <mxGeometry x="250" y="280" width="20" height="20" as="geometry" />
        </mxCell>
      </root>
    </mxGraphModel>
  </diagram>
</mxfile>
